<?xml version="1.0" encoding="UTF-8" standalone="no"?>
<svg
   xmlns:dc="http://purl.org/dc/elements/1.1/"
   xmlns:cc="http://creativecommons.org/ns#"
   xmlns:rdf="http://www.w3.org/1999/02/22-rdf-syntax-ns#"
   xmlns:svg="http://www.w3.org/2000/svg"
   xmlns="http://www.w3.org/2000/svg"
   xmlns:sodipodi="http://sodipodi.sourceforge.net/DTD/sodipodi-0.dtd"
   xmlns:inkscape="http://www.inkscape.org/namespaces/inkscape"
   version="1.1"
   viewBox="0 0 492.96054 475.6745"
   fill="none"
   stroke="none"
   stroke-linecap="square"
   stroke-miterlimit="10"
   id="svg1319"
   sodipodi:docname="Consistent Hashing (Hash Ring)-3.svg"
   width="492.96054"
   height="475.6745"
   inkscape:version="1.0.2 (e86c8708, 2021-01-15)">
  <metadata
     id="metadata1325">
    <rdf:RDF>
      <cc:Work
         rdf:about="">
        <dc:format>image/svg+xml</dc:format>
        <dc:type
           rdf:resource="http://purl.org/dc/dcmitype/StillImage" />
        <dc:title></dc:title>
      </cc:Work>
    </rdf:RDF>
  </metadata>
  <defs
     id="defs1323" />
  <sodipodi:namedview
     pagecolor="#ffffff"
     bordercolor="#666666"
     borderopacity="1"
     objecttolerance="10"
     gridtolerance="10"
     guidetolerance="10"
     inkscape:pageopacity="0"
     inkscape:pageshadow="2"
     inkscape:window-width="1217"
     inkscape:window-height="681"
     id="namedview1321"
     showgrid="false"
     inkscape:zoom="0.74166667"
     inkscape:cx="409.89843"
     inkscape:cy="240.5234"
     inkscape:window-x="0"
     inkscape:window-y="23"
     inkscape:window-maximized="0"
     inkscape:current-layer="svg1319" />
  <clipPath
     id="gfdc9d0b470_0_237.0">
    <path
       d="M 0,0 H 960 V 540 H 0 Z"
       clip-rule="nonzero"
       id="path1098" />
  </clipPath>
  <path
     fill="#000000"
     fill-opacity="0"
     d="M -45.831907,-32.17323 H 914.16809 v 540 H -45.831907 Z"
     fill-rule="evenodd"
     id="path1101" />
  <path
     fill="#000000"
     fill-opacity="0"
     d="m 591.23109,461.55117 h 315.02362 v 38.77164 H 591.23109 Z"
     fill-rule="evenodd"
     id="path1201" />
  <g
     id="g1540"
     transform="translate(-45.831907,-32.17323)">
    <path
       fill="#000000"
       fill-opacity="0"
       d="m 47.838142,270.00552 v 0 c 0,-130.24355 105.583248,-235.82678 235.826778,-235.82678 v 0 c 62.54514,0 122.5286,24.845966 166.7547,69.07207 44.22611,44.2261 69.07208,104.20956 69.07208,166.75473 v 0 c 0,130.24353 -105.58325,235.82675 -235.82678,235.82675 v 0 c -130.24353,0 -235.826778,-105.58322 -235.826778,-235.82675 z"
       fill-rule="evenodd"
       id="path1103" />
    <path
       stroke="#9900ff"
       stroke-width="1"
       stroke-linejoin="round"
       stroke-linecap="butt"
       d="m 47.838142,270.00552 v 0 c 0,-130.24355 105.583248,-235.82678 235.826778,-235.82678 v 0 c 62.54514,0 122.5286,24.845966 166.7547,69.07207 44.22611,44.2261 69.07208,104.20956 69.07208,166.75473 v 0 c 0,130.24353 -105.58325,235.82675 -235.82678,235.82675 v 0 c -130.24353,0 -235.826778,-105.58322 -235.826778,-235.82675 z"
       fill-rule="evenodd"
       id="path1105" />
    <path
       fill="#000000"
       fill-opacity="0"
       d="m 283.65878,34.17323 v 0 c 130.04214,0 235.54178,105.26912 235.8262,235.31096 C 519.7694,399.526 414.73132,505.25564 284.69042,505.82452 154.64951,506.39337 48.69039,401.58676 47.83709,271.54742 46.983788,141.5081 151.55839,35.31997 281.59554,34.18225 L 283.65877,270 Z"
       fill-rule="evenodd"
       id="path1107" />
    <path
       fill="#000000"
       fill-opacity="0"
       d="m 283.65878,34.17323 v 0 c 130.04214,0 235.54178,105.26912 235.8262,235.31096 C 519.7694,399.526 414.73132,505.25564 284.69042,505.82452 154.64951,506.39337 48.69039,401.58676 47.83709,271.54742 46.983788,141.5081 151.55839,35.31997 281.59554,34.18225"
       fill-rule="evenodd"
       id="path1109" />
    <path
       stroke="#0097a7"
       stroke-width="4"
       stroke-linejoin="round"
       stroke-linecap="butt"
       d="m 283.65878,34.17323 v 0 c 130.04214,0 235.54178,105.26912 235.8262,235.31096 C 519.7694,399.526 414.73132,505.25564 284.69042,505.82452 154.64951,506.39337 48.69039,401.58676 47.83709,271.54742 46.983788,141.5081 151.55839,35.31997 281.59554,34.18225"
       fill-rule="evenodd"
       id="path1111" />
    <path
       fill="#000000"
       fill-opacity="0"
       d="m 283.65878,34.17323 v 0 c 112.62329,0 209.5289,79.63486 231.35562,190.12286 21.82672,110.48799 -37.51773,220.98979 -141.68085,263.81555 -104.16312,42.82577 -224.07097,6.02206 -286.2719,-87.86643 -62.200943,-93.88846 -49.333485,-218.6556 30.72019,-297.8731 l 165.87695,167.62787 z"
       fill-rule="evenodd"
       id="path1113" />
    <path
       fill="#000000"
       fill-opacity="0"
       d="m 283.65878,34.17323 v 0 c 112.62329,0 209.5289,79.63486 231.35562,190.12286 21.82672,110.48799 -37.51773,220.98979 -141.68085,263.81555 -104.16312,42.82577 -224.07097,6.02206 -286.2719,-87.86643 -62.200943,-93.88846 -49.333485,-218.6556 30.72019,-297.8731"
       fill-rule="evenodd"
       id="path1115" />
    <path
       stroke="#ffab40"
       stroke-width="4"
       stroke-linejoin="round"
       stroke-linecap="butt"
       d="m 283.65878,34.17323 v 0 c 112.62329,0 209.5289,79.63486 231.35562,190.12286 21.82672,110.48799 -37.51773,220.98979 -141.68085,263.81555 -104.16312,42.82577 -224.07097,6.02206 -286.2719,-87.86643 -62.200943,-93.88846 -49.333485,-218.6556 30.72019,-297.8731"
       fill-rule="evenodd"
       id="path1117" />
    <path
       fill="#000000"
       fill-opacity="0"
       d="M 283.66492,34.178738 V 505.83227"
       fill-rule="evenodd"
       id="path1119" />
    <path
       stroke="#666666"
       stroke-width="1"
       stroke-linejoin="round"
       stroke-linecap="butt"
       d="M 283.66492,34.178738 V 505.83227"
       fill-rule="evenodd"
       id="path1121" />
    <path
       fill="#000000"
       fill-opacity="0"
       d="M 116.9102,103.2508 450.42204,436.7626"
       fill-rule="evenodd"
       id="path1123" />
    <path
       stroke="#666666"
       stroke-width="1"
       stroke-linejoin="round"
       stroke-linecap="butt"
       d="M 116.9102,103.2508 450.42204,436.7626"
       fill-rule="evenodd"
       id="path1125" />
    <path
       fill="#000000"
       fill-opacity="0"
       d="M 47.838142,270.00552 H 519.4917"
       fill-rule="evenodd"
       id="path1127" />
    <path
       stroke="#666666"
       stroke-width="1"
       stroke-linejoin="round"
       stroke-linecap="butt"
       d="M 47.838142,270.00552 H 519.4917"
       fill-rule="evenodd"
       id="path1129" />
    <path
       fill="#000000"
       fill-opacity="0"
       d="m 283.65878,34.17323 v 0 c 130.112,0 235.64072,105.37805 235.82657,235.48991 C 519.67114,399.77502 414.44394,505.45413 284.33249,505.8258 154.22101,506.1975 48.39172,401.12133 47.83419,271.01052 l 235.8246,-1.01053 z"
       fill-rule="evenodd"
       id="path1131" />
    <path
       fill="#000000"
       fill-opacity="0"
       d="m 283.65878,34.17323 v 0 c 130.112,0 235.64072,105.37805 235.82657,235.48991 C 519.67114,399.77502 414.44394,505.45413 284.33249,505.8258 154.22101,506.1975 48.39172,401.12133 47.83419,271.01052"
       fill-rule="evenodd"
       id="path1133" />
    <path
       stroke="#0097a7"
       stroke-width="4"
       stroke-linejoin="round"
       stroke-linecap="butt"
       d="m 283.65878,34.17323 v 0 c 130.112,0 235.64072,105.37805 235.82657,235.48991 C 519.67114,399.77502 414.44394,505.45413 284.33249,505.8258 154.22101,506.1975 48.39172,401.12133 47.83419,271.01052"
       fill-rule="evenodd"
       id="path1135" />
    <path
       fill="#000000"
       fill-opacity="0"
       d="M 116.9102,436.76022 450.42204,103.24842"
       fill-rule="evenodd"
       id="path1137" />
    <path
       stroke="#666666"
       stroke-width="1"
       stroke-linejoin="round"
       stroke-linecap="butt"
       d="M 116.9102,436.76022 450.42204,103.24842"
       fill-rule="evenodd"
       id="path1139" />
    <path
       fill="#000000"
       fill-opacity="0"
       d="m 283.65878,34.17323 v 0 c 106.32971,0 199.5087,71.1557 227.50537,173.73343 C 539.16082,310.4844 495.05001,419.11078 403.46337,473.12834 311.87676,527.14586 195.46899,513.19298 119.2427,439.06096 L 283.65878,269.99999 Z"
       fill-rule="evenodd"
       id="path1141" />
    <path
       fill="#000000"
       fill-opacity="0"
       d="m 283.65878,34.17323 v 0 c 106.32971,0 199.5087,71.1557 227.50537,173.73343 27.99667,102.57774 -16.11414,211.20412 -107.70078,265.22168 -91.58661,54.01752 -207.99438,40.06464 -284.22067,-34.06738"
       fill-rule="evenodd"
       id="path1143" />
    <path
       stroke="#ffab40"
       stroke-width="4"
       stroke-linejoin="round"
       stroke-linecap="butt"
       d="m 283.65878,34.17323 v 0 c 106.32971,0 199.5087,71.1557 227.50537,173.73343 27.99667,102.57774 -16.11414,211.20412 -107.70078,265.22168 -91.58661,54.01752 -207.99438,40.06464 -284.22067,-34.06738"
       fill-rule="evenodd"
       id="path1145" />
    <path
       fill="#ffffff"
       d="m 54.980736,270.0117 v 0 c 0,-126.86893 102.382254,-229.71652 228.677154,-229.71652 v 0 c 60.64895,0 118.8139,24.20221 161.69919,67.28242 42.88528,43.0802 66.978,101.50951 66.978,162.43411 v 0 c 0,126.86896 -102.38226,229.71655 -228.67719,229.71655 v 0 c -126.29491,0 -228.677154,-102.8476 -228.677154,-229.71655 z"
       fill-rule="evenodd"
       id="path1147" />
    <path
       stroke="#666666"
       stroke-width="1"
       stroke-linejoin="round"
       stroke-linecap="butt"
       d="m 54.980736,270.0117 v 0 c 0,-126.86893 102.382254,-229.71652 228.677154,-229.71652 v 0 c 60.64895,0 118.8139,24.20221 161.69919,67.28242 42.88528,43.0802 66.978,101.50951 66.978,162.43411 v 0 c 0,126.86896 -102.38226,229.71655 -228.67719,229.71655 v 0 c -126.29491,0 -228.677154,-102.8476 -228.677154,-229.71655 z"
       fill-rule="evenodd"
       id="path1149" />
    <path
       fill="#000000"
       fill-opacity="0"
       d="m 422.09637,97.936646 h 37.7323 V 136.7083 h -37.7323 z"
       fill-rule="evenodd"
       id="path1151" />
    <path
       fill="#000000"
       d="m 437.03387,110.62477 q 2.46875,0 3.92187,1.6875 1.45313,1.67187 1.45313,4.26562 0,1.40625 -0.46875,2.59375 -0.45313,1.17188 -1.25,1.9375 l 1.625,1.25 -0.54688,0.67188 -1.76562,-1.34375 q -0.59375,0.42187 -1.32813,0.64062 -0.73437,0.21875 -1.64062,0.21875 -2.45313,0 -3.92188,-1.67187 -1.46875,-1.67188 -1.46875,-4.29688 0,-2.60937 1.46875,-4.28125 1.46875,-1.67187 3.92188,-1.67187 z m -4.29688,5.95312 q 0,2.15625 1.125,3.59375 1.14063,1.4375 3.17188,1.4375 0.60937,0 1.125,-0.14062 0.53125,-0.14063 0.98437,-0.42188 l -1.5,-1.14062 0.5625,-0.6875 1.65625,1.26562 q 0.73438,-0.70312 1.09375,-1.71875 0.375,-1.01562 0.375,-2.1875 0,-2.14062 -1.14062,-3.57812 -1.125,-1.4375 -3.17188,-1.4375 -1.98437,0 -3.14062,1.40625 -1.14063,1.40625 -1.14063,3.60937 z"
       fill-rule="nonzero"
       id="path1153" />
    <path
       fill="#000000"
       d="m 446.08075,120.8279 h 0.54688 v 7.46875 h -0.67188 v -5.54688 H 443.987 v -0.46875 q 0.92188,-0.0156 1.28125,-0.15625 0.35938,-0.15625 0.54688,-0.45312 0.20312,-0.3125 0.26562,-0.84375 z"
       fill-rule="nonzero"
       id="path1155" />
    <path
       fill="#000000"
       fill-opacity="0"
       d="m 135.90063,396.03375 h 37.73227 v 38.77167 h -37.73227 z"
       fill-rule="evenodd"
       id="path1157" />
    <path
       fill="#000000"
       d="m 147.80688,418.69064 v 1.70312 h -1.34375 v -1.70312 z m 4.44531,0 v 1.70312 h -1.34375 v -1.70312 z m 4.44531,0 v 1.70312 h -1.34375 v -1.70312 z"
       fill-rule="nonzero"
       id="path1159" />
    <path
       fill="#000000"
       fill-opacity="0"
       d="m 283.65878,34.17323 v 0 c 129.84552,0 235.26315,104.96281 235.82455,234.80711 0.56146,129.8443 -103.94461,235.71478 -233.78525,236.83762 L 283.65877,270 Z"
       fill-rule="evenodd"
       id="path1161" />
    <path
       fill="#000000"
       fill-opacity="0"
       d="m 283.65878,34.17323 v 0 c 129.84552,0 235.26315,104.96281 235.82455,234.80711 0.56146,129.8443 -103.94461,235.71478 -233.78525,236.83762"
       fill-rule="evenodd"
       id="path1163" />
    <path
       stroke="#0097a7"
       stroke-width="4"
       stroke-linejoin="round"
       stroke-linecap="butt"
       d="m 283.65878,34.17323 v 0 c 129.84552,0 235.26315,104.96281 235.82455,234.80711 0.56146,129.8443 -103.94461,235.71478 -233.78525,236.83762"
       fill-rule="evenodd"
       id="path1165" />
    <path
       fill="#000000"
       fill-opacity="0"
       d="m 283.65878,34.17323 v 0 c 95.21274,0 181.08527,57.255047 217.69604,145.14767 36.61081,87.89265 16.77695,189.1786 -50.28094,256.7708 L 283.65878,270 Z"
       fill-rule="evenodd"
       id="path1167" />
    <path
       fill="#000000"
       fill-opacity="0"
       d="m 283.65878,34.17323 v 0 c 95.21274,0 181.08527,57.255047 217.69604,145.14767 36.61081,87.89265 16.77695,189.1786 -50.28094,256.7708"
       fill-rule="evenodd"
       id="path1169" />
    <path
       stroke="#ffab40"
       stroke-width="4"
       stroke-linejoin="round"
       stroke-linecap="butt"
       d="m 283.65878,34.17323 v 0 c 95.21274,0 181.08527,57.255047 217.69604,145.14767 36.61081,87.89265 16.77695,189.1786 -50.28094,256.7708"
       fill-rule="evenodd"
       id="path1171" />
    <path
       fill="#000000"
       fill-opacity="0"
       d="m 283.65878,34.17323 v 0 c 62.89429,0 123.18289,25.12334 167.46548,69.78589 44.28262,44.66254 68.89001,105.16355 68.35266,168.05557 l -235.81815,-2.01468 z"
       fill-rule="evenodd"
       id="path1173" />
    <path
       fill="#000000"
       fill-opacity="0"
       d="m 283.65878,34.17323 v 0 c 62.89429,0 123.18289,25.12334 167.46548,69.78589 44.28262,44.66254 68.89001,105.16355 68.35266,168.05557"
       fill-rule="evenodd"
       id="path1175" />
    <path
       stroke="#0097a7"
       stroke-width="4"
       stroke-linejoin="round"
       stroke-linecap="butt"
       d="m 283.65878,34.17323 v 0 c 62.89429,0 123.18289,25.12334 167.46548,69.78589 44.28262,44.66254 68.89001,105.16355 68.35266,168.05557"
       fill-rule="evenodd"
       id="path1177" />
    <path
       fill="#000000"
       fill-opacity="0"
       d="m 283.65878,34.17323 v 0 c 62.88068,0 123.15738,25.112495 167.43784,69.758 L 283.65878,270.00002 Z"
       fill-rule="evenodd"
       id="path1179" />
    <path
       fill="#000000"
       fill-opacity="0"
       d="m 283.65878,34.17323 v 0 c 62.88068,0 123.15738,25.112495 167.43784,69.758"
       fill-rule="evenodd"
       id="path1181" />
    <path
       stroke="#ffab40"
       stroke-width="4"
       stroke-linejoin="round"
       stroke-linecap="butt"
       d="m 283.65878,34.17323 v 0 c 62.88068,0 123.15738,25.112495 167.43784,69.758"
       fill-rule="evenodd"
       id="path1183" />
    <path
       fill="#000000"
       fill-opacity="0"
       d="m 267.39517,463.22165 h 37.73227 v 38.77164 h -37.73227 z"
       fill-rule="evenodd"
       id="path1185" />
    <path
       fill="#000000"
       d="m 282.33267,475.90976 q 2.46875,0 3.92187,1.6875 1.45313,1.67187 1.45313,4.26562 0,1.40625 -0.46875,2.59375 -0.45313,1.17188 -1.25,1.9375 l 1.625,1.25 -0.54688,0.67188 -1.76562,-1.34375 q -0.59375,0.42187 -1.32813,0.64062 -0.73437,0.21875 -1.64062,0.21875 -2.45313,0 -3.92188,-1.67187 -1.46875,-1.67188 -1.46875,-4.29688 0,-2.60937 1.46875,-4.28125 1.46875,-1.67187 3.92188,-1.67187 z m -4.29688,5.95312 q 0,2.15625 1.125,3.59375 1.14063,1.4375 3.17188,1.4375 0.60937,0 1.125,-0.14062 0.53125,-0.14063 0.98437,-0.42188 l -1.5,-1.14062 0.5625,-0.6875 1.65625,1.26562 q 0.73438,-0.70312 1.09375,-1.71875 0.375,-1.01562 0.375,-2.1875 0,-2.14062 -1.14062,-3.57812 -1.125,-1.4375 -3.17188,-1.4375 -1.98437,0 -3.14062,1.40625 -1.14063,1.40625 -1.14063,3.60937 z"
       fill-rule="nonzero"
       id="path1187" />
    <path
       fill="#000000"
       d="m 292.02017,486.11288 h 0.60937 v 5.04688 h 1.125 v 0.5625 h -1.125 v 1.85937 h -0.60937 v -1.85937 h -3.45313 v -0.64063 z m -2.84375,5.04688 h 2.84375 v -4.0625 h -0.0312 z"
       fill-rule="nonzero"
       id="path1189" />
    <path
       fill="#000000"
       fill-opacity="0"
       d="m 416.709,404.2183 h 37.7323 v 38.77164 H 416.709 Z"
       fill-rule="evenodd"
       id="path1191" />
    <path
       fill="#000000"
       d="m 431.6465,416.9064 q 2.46875,0 3.92187,1.6875 1.45313,1.67188 1.45313,4.26563 0,1.40625 -0.46875,2.59375 -0.45313,1.17187 -1.25,1.9375 l 1.625,1.25 -0.54688,0.67187 -1.76562,-1.34375 q -0.59375,0.42188 -1.32813,0.64063 -0.73437,0.21875 -1.64062,0.21875 -2.45313,0 -3.92188,-1.67188 -1.46875,-1.67187 -1.46875,-4.29687 0,-2.60938 1.46875,-4.28125 1.46875,-1.67188 3.92188,-1.67188 z m -4.29688,5.95313 q 0,2.15625 1.125,3.59375 1.14063,1.4375 3.17188,1.4375 0.60937,0 1.125,-0.14063 0.53125,-0.14062 0.98437,-0.42187 l -1.5,-1.14063 0.5625,-0.6875 1.65625,1.26563 q 0.73438,-0.70313 1.09375,-1.71875 0.375,-1.01563 0.375,-2.1875 0,-2.14063 -1.14062,-3.57813 -1.125,-1.4375 -3.17188,-1.4375 -1.98437,0 -3.14062,1.40625 -1.14063,1.40625 -1.14063,3.60938 z"
       fill-rule="nonzero"
       id="path1193" />
    <path
       fill="#000000"
       d="m 440.42776,427.04703 q 0.96875,0 1.64062,0.5 0.67188,0.5 0.67188,1.40625 0,0.60937 -0.32813,1.04687 -0.32812,0.4375 -0.92187,0.60938 v 0.0156 q 0.76562,0.14063 1.14062,0.64063 0.39063,0.5 0.39063,1.20312 0,1.01563 -0.73438,1.64063 -0.71875,0.625 -1.84375,0.625 -1.10937,0 -1.82812,-0.625 -0.71875,-0.625 -0.71875,-1.73438 0,-0.14062 0.0156,-0.17187 h 0.67188 v 0.14062 q 0,0.8125 0.5,1.32813 0.5,0.5 1.35937,0.5 0.8125,0 1.35938,-0.45313 0.54687,-0.46875 0.54687,-1.20312 0,-0.71875 -0.48437,-1.14063 -0.48438,-0.42187 -1.3125,-0.42187 h -0.5625 v -0.57813 h 0.59375 q 0.59375,0 1.03125,-0.35937 0.45312,-0.35938 0.45312,-0.98438 0,-0.6875 -0.45312,-1.04687 -0.4375,-0.35938 -1.17188,-0.35938 -0.76562,0 -1.23437,0.48438 -0.46875,0.48437 -0.46875,1.35937 v 0.0312 h -0.67188 q 0.0156,-1.09375 0.67188,-1.76562 0.65625,-0.6875 1.6875,-0.6875 z"
       fill-rule="nonzero"
       id="path1195" />
    <path
       fill="#000000"
       fill-opacity="0"
       d="m 118.12934,91.474335 h 37.73228 v 38.771655 h -37.73228 z"
       fill-rule="evenodd"
       id="path1197" />
    <path
       fill="#000000"
       d="m 130.03558,114.13121 v 1.70312 h -1.34375 v -1.70312 z m 4.44531,0 v 1.70312 h -1.34375 v -1.70312 z m 4.44531,0 v 1.70312 h -1.34375 v -1.70312 z"
       fill-rule="nonzero"
       id="path1199" />
    <path
       fill="#000000"
       fill-opacity="0"
       d="m 477.97638,247.84514 h 37.7323 v 38.77165 h -37.7323 z"
       fill-rule="evenodd"
       id="path1205" />
    <path
       fill="#000000"
       d="m 492.91388,260.53326 q 2.46875,0 3.92187,1.6875 1.45313,1.67187 1.45313,4.26562 0,1.40625 -0.46875,2.59375 -0.45313,1.17188 -1.25,1.9375 l 1.625,1.25 -0.54688,0.67188 -1.76562,-1.34375 q -0.59375,0.42187 -1.32813,0.64062 -0.73437,0.21875 -1.64062,0.21875 -2.45313,0 -3.92188,-1.67187 -1.46875,-1.67188 -1.46875,-4.29688 0,-2.60937 1.46875,-4.28125 1.46875,-1.67187 3.92188,-1.67187 z m -4.29688,5.95312 q 0,2.15625 1.125,3.59375 1.14063,1.4375 3.17188,1.4375 0.60937,0 1.125,-0.14062 0.53125,-0.14063 0.98437,-0.42188 l -1.5,-1.14062 0.5625,-0.6875 1.65625,1.26562 q 0.73438,-0.70312 1.09375,-1.71875 0.375,-1.01562 0.375,-2.1875 0,-2.14062 -1.14062,-3.57812 -1.125,-1.4375 -3.17188,-1.4375 -1.98437,0 -3.14062,1.40625 -1.14063,1.40625 -1.14063,3.60937 z"
       fill-rule="nonzero"
       id="path1207" />
    <path
       fill="#000000"
       d="m 501.78888,270.6739 q 1.04687,0 1.67187,0.57812 0.64063,0.5625 0.64063,1.53125 0,0.76563 -0.48438,1.4375 -0.46875,0.65625 -1.71875,1.42188 -1.01562,0.60937 -1.4375,1.0625 -0.40625,0.4375 -0.46875,0.875 h 4.14063 v 0.625 h -4.90625 q 0,-0.82813 0.46875,-1.5 0.46875,-0.67188 1.67187,-1.4375 1.1875,-0.75 1.625,-1.26563 0.4375,-0.53125 0.4375,-1.23437 0,-0.67188 -0.46875,-1.09375 -0.46875,-0.42188 -1.20312,-0.42188 -0.76563,0 -1.21875,0.5 -0.4375,0.5 -0.46875,1.42188 v 0.15625 h -0.67188 v -0.10938 q 0,-1.15625 0.625,-1.84375 0.625,-0.70312 1.76563,-0.70312 z"
       fill-rule="nonzero"
       id="path1209" />
    <path
       fill="#000000"
       fill-opacity="0"
       d="m 52.60929,253.31349 h 37.732285 v 38.77165 H 52.60929 Z"
       fill-rule="evenodd"
       id="path1211" />
    <path
       fill="#000000"
       d="m 67.54679,266.00162 q 2.46875,0 3.921875,1.6875 1.453125,1.67187 1.453125,4.26562 0,1.40625 -0.46875,2.59375 -0.453125,1.17188 -1.25,1.9375 l 1.625,1.25 -0.546875,0.67188 -1.765625,-1.34375 q -0.59375,0.42187 -1.328125,0.64062 -0.734375,0.21875 -1.640625,0.21875 -2.453125,0 -3.921875,-1.67187 -1.46875,-1.67188 -1.46875,-4.29688 0,-2.60937 1.46875,-4.28125 1.46875,-1.67187 3.921875,-1.67187 z m -4.296875,5.95312 q 0,2.15625 1.125,3.59375 1.140625,1.4375 3.171875,1.4375 0.609375,0 1.125,-0.14062 0.53125,-0.14063 0.984375,-0.42188 l -1.5,-1.14062 0.5625,-0.6875 1.65625,1.26562 q 0.734375,-0.70312 1.09375,-1.71875 0.375,-1.01562 0.375,-2.1875 0,-2.14062 -1.140625,-3.57812 -1.125,-1.4375 -3.171875,-1.4375 -1.984375,0 -3.140625,1.40625 -1.140625,1.40625 -1.140625,3.60937 z"
       fill-rule="nonzero"
       id="path1213" />
    <path
       fill="#000000"
       d="m 76.54679,278.01724 q 1.0625,0 1.53125,0.51563 0.484375,0.51562 0.484375,1.54687 v 3.59375 H 77.89054 v -3.46875 q 0,-0.79687 -0.34375,-1.20312 -0.34375,-0.42188 -1.046875,-0.42188 -0.546875,0 -0.953125,0.26563 -0.390625,0.26562 -0.59375,0.71875 -0.1875,0.45312 -0.1875,0.89062 v 3.21875 h -0.671875 v -5.5 h 0.671875 v 0.95313 h 0.03125 q 0.1875,-0.5 0.671875,-0.79688 0.484375,-0.3125 1.078125,-0.3125 z"
       fill-rule="nonzero"
       id="path1215" />
    <path
       fill="#000000"
       fill-opacity="0"
       d="m 270.05884,35.54673 h 37.7323 v 38.771652 h -37.7323 z"
       fill-rule="evenodd"
       id="path1217" />
    <path
       fill="#000000"
       d="m 284.99634,48.234856 q 2.46875,0 3.92187,1.6875 1.45313,1.671875 1.45313,4.265625 0,1.40625 -0.46875,2.59375 -0.45313,1.171875 -1.25,1.9375 l 1.625,1.25 -0.54688,0.671875 -1.76562,-1.34375 q -0.59375,0.421875 -1.32813,0.640625 -0.73437,0.21875 -1.64062,0.21875 -2.45313,0 -3.92188,-1.671875 -1.46875,-1.671875 -1.46875,-4.296875 0,-2.609375 1.46875,-4.28125 1.46875,-1.671875 3.92188,-1.671875 z m -4.29688,5.953125 q 0,2.15625 1.125,3.59375 1.14063,1.4375 3.17188,1.4375 0.60937,0 1.125,-0.140625 0.53125,-0.140625 0.98437,-0.421875 l -1.5,-1.140625 0.5625,-0.6875 1.65625,1.265625 q 0.73438,-0.703125 1.09375,-1.71875 0.375,-1.015625 0.375,-2.1875 0,-2.140625 -1.14062,-3.578125 -1.125,-1.4375 -3.17188,-1.4375 -1.98437,0 -3.14062,1.40625 -1.14063,1.40625 -1.14063,3.609375 z"
       fill-rule="nonzero"
       id="path1219" />
    <path
       fill="#000000"
       d="m 293.7932,60.25048 q 0.625,0 1.17188,0.34375 0.5625,0.328125 0.79687,0.859375 h 0.0156 V 60.40673 h 0.625 v 7.53125 h -0.67188 v -3.078125 h -0.0312 q -0.20312,0.5625 -0.73437,0.890625 -0.51563,0.3125 -1.17188,0.3125 -1.125,0 -1.79687,-0.78125 -0.67188,-0.796875 -0.67188,-2.125 0,-1.3125 0.65625,-2.109375 0.67188,-0.796875 1.8125,-0.796875 z m -1.79687,2.90625 q 0,1.015625 0.48437,1.6875 0.48438,0.65625 1.3125,0.65625 0.92188,0 1.42188,-0.65625 0.51562,-0.65625 0.51562,-1.6875 0,-1.03125 -0.51562,-1.6875 -0.5,-0.65625 -1.42188,-0.65625 -0.8125,0 -1.3125,0.65625 -0.48437,0.640625 -0.48437,1.6875 z"
       fill-rule="nonzero"
       id="path1221" />
    <path
       fill="#000000"
       fill-opacity="0"
       d="M 443,63 430.05511,81.992126"
       fill-rule="evenodd"
       id="path1223" />
    <path
       stroke="#595959"
       stroke-width="1"
       stroke-linejoin="round"
       stroke-linecap="butt"
       d="M 443,63 431.98529,79.16027"
       fill-rule="evenodd"
       id="path1225" />
    <path
       fill="#595959"
       stroke="#595959"
       stroke-width="1"
       stroke-linecap="butt"
       d="m 431.9853,79.16028 -0.2959,-1.562637 -0.81091,3.186493 2.66943,-1.919739 z"
       fill-rule="evenodd"
       id="path1227" />
    <path
       fill="#000000"
       fill-opacity="0"
       d="m 508.27356,366.2934 v 0"
       fill-rule="evenodd"
       id="path1229" />
    <path
       stroke="#595959"
       stroke-width="1"
       stroke-linejoin="round"
       stroke-linecap="butt"
       d="m 508.27356,366.2934 v 0"
       fill-rule="evenodd"
       id="path1231" />
    <path
       fill="#000000"
       fill-opacity="0"
       d="m 503,126 -19.68503,12.81889"
       fill-rule="evenodd"
       id="path1233" />
    <path
       stroke="#595959"
       stroke-width="1"
       stroke-linejoin="round"
       stroke-linecap="butt"
       d="m 503,126 -16.8132,10.94876"
       fill-rule="evenodd"
       id="path1235" />
    <path
       fill="#595959"
       stroke="#595959"
       stroke-width="1"
       stroke-linecap="butt"
       d="m 486.1868,136.94876 0.3287,-1.55608 -1.97549,2.62847 3.20285,-0.7437 z"
       fill-rule="evenodd"
       id="path1237" />
    <path
       fill="#000000"
       fill-opacity="0"
       d="m 538.6333,333.56955 -21.48035,-7.21259"
       fill-rule="evenodd"
       id="path1239" />
    <path
       stroke="#595959"
       stroke-width="1"
       stroke-linejoin="round"
       stroke-linecap="butt"
       d="m 538.6333,333.56955 -18.23151,-6.1217"
       fill-rule="evenodd"
       id="path1241" />
    <path
       fill="#595959"
       stroke="#595959"
       stroke-width="1"
       stroke-linecap="butt"
       d="m 520.4018,327.44785 1.42407,-0.70813 -3.28705,0.0826 2.57111,2.04959 z"
       fill-rule="evenodd"
       id="path1243" />
    <path
       fill="#000000"
       fill-opacity="0"
       d="m 535.8991,341.56955 -21.48035,-7.21259"
       fill-rule="evenodd"
       id="path1245" />
    <path
       stroke="#595959"
       stroke-width="1"
       stroke-linejoin="round"
       stroke-linecap="butt"
       d="m 535.8991,341.56955 -18.23151,-6.1217"
       fill-rule="evenodd"
       id="path1247" />
    <path
       fill="#595959"
       stroke="#595959"
       stroke-width="1"
       stroke-linecap="butt"
       d="m 517.6676,335.44785 1.42407,-0.70813 -3.28698,0.0826 2.57104,2.04959 z"
       fill-rule="evenodd"
       id="path1249" />
    <path
       fill="#000000"
       fill-opacity="0"
       d="M 524.96326,377.3176 503.67191,366.35697"
       fill-rule="evenodd"
       id="path1251" />
    <path
       stroke="#595959"
       stroke-width="1"
       stroke-linejoin="round"
       stroke-linecap="butt"
       d="m 524.96326,377.3176 -18.24429,-9.39203"
       fill-rule="evenodd"
       id="path1253" />
    <path
       fill="#595959"
       stroke="#595959"
       stroke-width="1"
       stroke-linecap="butt"
       d="m 506.71896,367.92554 1.51459,-0.48514 -3.26184,-0.41434 2.23239,2.4141 z"
       fill-rule="evenodd"
       id="path1255" />
    <path
       fill="#000000"
       fill-opacity="0"
       d="m 507.5013,134.5 -18.92914,12.81889"
       fill-rule="evenodd"
       id="path1257" />
    <path
       stroke="#595959"
       stroke-width="1"
       stroke-linejoin="round"
       stroke-linecap="butt"
       d="m 507.5013,134.5 -16.09149,10.89723"
       fill-rule="evenodd"
       id="path1259" />
    <path
       fill="#595959"
       stroke="#595959"
       stroke-width="1"
       stroke-linecap="butt"
       d="m 491.40982,145.39725 0.30057,-1.56175 -1.92777,2.66368 3.18894,-0.80136 z"
       fill-rule="evenodd"
       id="path1261" />
    <path
       fill="#000000"
       fill-opacity="0"
       d="m 512.5,143.5 -18.96063,13.19685"
       fill-rule="evenodd"
       id="path1263" />
    <path
       stroke="#595959"
       stroke-width="1"
       stroke-linejoin="round"
       stroke-linecap="butt"
       d="m 512.5,143.5 -16.1478,11.23908"
       fill-rule="evenodd"
       id="path1265" />
    <path
       fill="#595959"
       stroke="#595959"
       stroke-width="1"
       stroke-linecap="butt"
       d="m 496.3522,154.73907 0.28058,-1.56545 -1.89353,2.6881 3.17841,-0.84206 z"
       fill-rule="evenodd"
       id="path1267" />
    <path
       fill="#000000"
       fill-opacity="0"
       d="M 504.4567,411.49344 484.77167,399.68241"
       fill-rule="evenodd"
       id="path1269" />
    <path
       stroke="#595959"
       stroke-width="1"
       stroke-linejoin="round"
       stroke-linecap="butt"
       d="M 504.4567,411.49344 487.71036,401.44562"
       fill-rule="evenodd"
       id="path1271" />
    <path
       fill="#595959"
       stroke="#595959"
       stroke-width="1"
       stroke-linecap="butt"
       d="m 487.71036,401.44565 1.54291,-0.38574 -3.22803,-0.62534 2.07086,2.55399 z"
       fill-rule="evenodd"
       id="path1273" />
    <path
       fill="#000000"
       fill-opacity="0"
       d="M 500.35544,419.49344 480.67038,407.68241"
       fill-rule="evenodd"
       id="path1275" />
    <path
       stroke="#595959"
       stroke-width="1"
       stroke-linejoin="round"
       stroke-linecap="butt"
       d="M 500.35544,419.49344 483.6091,409.44562"
       fill-rule="evenodd"
       id="path1277" />
    <path
       fill="#595959"
       stroke="#595959"
       stroke-width="1"
       stroke-linecap="butt"
       d="m 483.6091,409.44565 1.54291,-0.38574 -3.22803,-0.62534 2.07086,2.55399 z"
       fill-rule="evenodd"
       id="path1279" />
    <path
       fill="#000000"
       fill-opacity="0"
       d="m 90.341576,272.69934 c 97.952754,0 195.905524,95.25983 195.905524,190.51968"
       fill-rule="evenodd"
       id="path1281" />
    <path
       stroke="#b7b7b7"
       stroke-width="1"
       stroke-linejoin="round"
       stroke-linecap="butt"
       d="m 90.341576,272.69934 c 97.952754,0 195.905524,95.25983 195.905524,190.51968"
       fill-rule="evenodd"
       id="path1283" />
    <path
       fill="#000000"
       fill-opacity="0"
       d="m 90.341576,272.69934 c 81.592184,0 122.389094,37.7244 163.184364,75.44879 40.79528,37.72443 81.58893,75.44882 163.17783,75.44882"
       fill-rule="evenodd"
       id="path1285" />
    <path
       stroke="#b7b7b7"
       stroke-width="1"
       stroke-linejoin="round"
       stroke-linecap="butt"
       d="m 90.341576,272.69934 c 81.592184,0 122.389094,37.7244 163.184364,75.44879 40.79528,37.72443 81.58893,75.44882 163.17783,75.44882"
       fill-rule="evenodd"
       id="path1287" />
    <path
       fill="#000000"
       fill-opacity="0"
       d="m 90.341576,272.69934 c 54.145794,0 97.882134,35.67715 108.291574,71.35431 10.40945,35.67719 -12.508,71.35434 -25.01598,71.35434"
       fill-rule="evenodd"
       id="path1289" />
    <path
       stroke="#b7b7b7"
       stroke-width="1"
       stroke-linejoin="round"
       stroke-linecap="butt"
       d="m 90.341576,272.69934 c 54.145794,0 97.882134,35.67715 108.291574,71.35431 10.40945,35.67719 -12.508,71.35434 -25.01598,71.35434"
       fill-rule="evenodd"
       id="path1291" />
    <path
       fill="#000000"
       fill-opacity="0"
       d="M 400.55643,36.311024 389.62729,56.814961"
       fill-rule="evenodd"
       id="path1293" />
    <path
       stroke="#595959"
       stroke-width="1"
       stroke-linejoin="round"
       stroke-linecap="butt"
       d="m 400.55643,36.311024 -9.31708,17.479652"
       fill-rule="evenodd"
       id="path1295" />
    <path
       fill="#595959"
       stroke="#595959"
       stroke-width="1"
       stroke-linecap="butt"
       d="m 391.23932,53.790676 -0.46344,-1.521385 -0.46094,3.255592 2.44577,-2.197636 z"
       fill-rule="evenodd"
       id="path1297" />
    <path
       fill="#000000"
       fill-opacity="0"
       d="M 407.75137,40.04688 396.82226,60.550817"
       fill-rule="evenodd"
       id="path1299" />
    <path
       stroke="#595959"
       stroke-width="1"
       stroke-linejoin="round"
       stroke-linecap="butt"
       d="m 407.7514,40.04688 -9.31711,17.479656"
       fill-rule="evenodd"
       id="path1301" />
    <path
       fill="#595959"
       stroke="#595959"
       stroke-width="1"
       stroke-linecap="butt"
       d="m 398.4343,57.52653 -0.46344,-1.521385 -0.46094,3.255592 2.44574,-2.197636 z"
       fill-rule="evenodd"
       id="path1303" />
    <path
       fill="#000000"
       fill-opacity="0"
       d="m 415.47675,44.148144 -10.92914,20.50394"
       fill-rule="evenodd"
       id="path1305" />
    <path
       stroke="#595959"
       stroke-width="1"
       stroke-linejoin="round"
       stroke-linecap="butt"
       d="M 415.47675,44.148144 406.15967,61.6278"
       fill-rule="evenodd"
       id="path1307" />
    <path
       fill="#595959"
       stroke="#595959"
       stroke-width="1"
       stroke-linecap="butt"
       d="m 406.15964,61.627796 -0.46344,-1.521385 -0.46094,3.255592 2.44577,-2.197636 z"
       fill-rule="evenodd"
       id="path1309" />
    <path
       fill="#000000"
       fill-opacity="0"
       d="M 458.5013,74 443.54067,92.992126"
       fill-rule="evenodd"
       id="path1311" />
    <path
       stroke="#595959"
       stroke-width="1"
       stroke-linejoin="round"
       stroke-linecap="butt"
       d="M 458.5013,74 445.66136,90.29998"
       fill-rule="evenodd"
       id="path1313" />
    <path
       fill="#595959"
       stroke="#595959"
       stroke-width="1"
       stroke-linecap="butt"
       d="m 445.66135,90.29998 -0.1875,-1.579308 -1.02853,3.123055 2.79535,-1.73127 z"
       fill-rule="evenodd"
       id="path1315" />
  </g>
</svg>
